<svg width="23" height="18" viewBox="0 0 23 18" fill="none" xmlns="http://www.w3.org/2000/svg">
<path d="M5.72977 5.82659L1.92165 9.00002L5.72977 12.1735C5.80763 12.2358 5.87227 12.313 5.91992 12.4006C5.96757 12.4882 5.99727 12.5845 6.00728 12.6837C6.01729 12.7829 6.00741 12.8831 5.97822 12.9785C5.94903 13.0739 5.90111 13.1624 5.83727 13.2391C5.77343 13.3157 5.69495 13.3788 5.60643 13.4247C5.5179 13.4706 5.42111 13.4984 5.32171 13.5065C5.2223 13.5146 5.12229 13.5027 5.02752 13.4717C4.93275 13.4406 4.84513 13.391 4.76977 13.3256L0.269775 9.57565C0.185337 9.50526 0.117403 9.41717 0.070784 9.31762C0.0241649 9.21807 0 9.10948 0 8.99956C0 8.88963 0.0241649 8.78104 0.070784 8.68149C0.117403 8.58194 0.185337 8.49385 0.269775 8.42346L4.76977 4.67346C4.92269 4.54616 5.11991 4.48481 5.31805 4.50292C5.5162 4.52103 5.69903 4.61711 5.82634 4.77002C5.95364 4.92294 6.01499 5.12016 5.99688 5.3183C5.97877 5.51645 5.88269 5.69928 5.72977 5.82659ZM22.2298 8.42346L17.7298 4.67346C17.6541 4.61043 17.5667 4.56292 17.4726 4.53366C17.3785 4.5044 17.2796 4.49396 17.1815 4.50292C17.0834 4.51189 16.988 4.54009 16.9008 4.58592C16.8136 4.63175 16.7362 4.69431 16.6732 4.77002C16.5459 4.92294 16.4846 5.12016 16.5027 5.3183C16.5208 5.51645 16.6169 5.69928 16.7698 5.82659L20.5779 9.00002L16.7698 12.1735C16.6919 12.2358 16.6273 12.313 16.5796 12.4006C16.532 12.4882 16.5023 12.5845 16.4923 12.6837C16.4823 12.7829 16.4921 12.8831 16.5213 12.9785C16.5505 13.0739 16.5984 13.1624 16.6623 13.2391C16.7261 13.3157 16.8046 13.3788 16.8931 13.4247C16.9816 13.4706 17.0784 13.4984 17.1778 13.5065C17.2772 13.5146 17.3773 13.5027 17.472 13.4717C17.5668 13.4406 17.6544 13.391 17.7298 13.3256L22.2298 9.57565C22.3142 9.50526 22.3821 9.41717 22.4288 9.31762C22.4754 9.21807 22.4995 9.10948 22.4995 8.99956C22.4995 8.88963 22.4754 8.78104 22.4288 8.68149C22.3821 8.58194 22.3142 8.49385 22.2298 8.42346ZM14.5057 0.0450248C14.4131 0.011412 14.3148 -0.00363575 14.2164 0.000740808C14.118 0.00511737 14.0215 0.0288326 13.9322 0.0705322C13.843 0.112232 13.7629 0.171099 13.6964 0.243773C13.6299 0.316447 13.5784 0.401504 13.5448 0.494087L7.54477 16.9941C7.51102 17.0867 7.49586 17.1851 7.50016 17.2836C7.50447 17.3821 7.52815 17.4788 7.56986 17.5681C7.61157 17.6575 7.67049 17.7377 7.74324 17.8043C7.81599 17.8708 7.90114 17.9224 7.99384 17.956C8.076 17.9852 8.16257 18.0001 8.24977 18C8.4038 18 8.55409 17.9526 8.68022 17.8642C8.80635 17.7758 8.90221 17.6507 8.95477 17.506L14.9548 1.00596C14.9884 0.913381 15.0034 0.815085 14.9991 0.716688C14.9947 0.61829 14.971 0.521718 14.9293 0.432486C14.8876 0.343254 14.8287 0.26311 14.756 0.196629C14.6834 0.130148 14.5983 0.0786328 14.5057 0.0450248Z" fill="#E4E4E4"/>
</svg>
