<svg width="23" height="18" viewBox="0 0 23 18" fill="none" xmlns="http://www.w3.org/2000/svg">
<path d="M18.75 9V6C18.7501 5.90148 18.7307 5.80391 18.6931 5.71286C18.6555 5.62182 18.6003 5.53908 18.5306 5.46938L13.2806 0.219375C13.2109 0.149749 13.1282 0.094539 13.0371 0.0568979C12.9461 0.0192569 12.8485 -7.72394e-05 12.75 2.31899e-07H3.75C3.35218 2.31899e-07 2.97064 0.158035 2.68934 0.43934C2.40804 0.720645 2.25 1.10218 2.25 1.5V9C2.25 9.19891 2.32902 9.38968 2.46967 9.53033C2.61032 9.67098 2.80109 9.75 3 9.75C3.19891 9.75 3.38968 9.67098 3.53033 9.53033C3.67098 9.38968 3.75 9.19891 3.75 9V1.5H12V6C12 6.19891 12.079 6.38968 12.2197 6.53033C12.3603 6.67098 12.5511 6.75 12.75 6.75H17.25V9C17.25 9.19891 17.329 9.38968 17.4697 9.53033C17.6103 9.67098 17.8011 9.75 18 9.75C18.1989 9.75 18.3897 9.67098 18.5303 9.53033C18.671 9.38968 18.75 9.19891 18.75 9ZM13.5 2.56031L16.1897 5.25H13.5V2.56031ZM4.875 12.75V17.25C4.875 17.4489 4.79598 17.6397 4.65533 17.7803C4.51468 17.921 4.32391 18 4.125 18C3.92609 18 3.73532 17.921 3.59467 17.7803C3.45402 17.6397 3.375 17.4489 3.375 17.25V15.75H1.5V17.25C1.5 17.4489 1.42098 17.6397 1.28033 17.7803C1.13968 17.921 0.948912 18 0.75 18C0.551088 18 0.360322 17.921 0.21967 17.7803C0.0790176 17.6397 0 17.4489 0 17.25V12.75C0 12.5511 0.0790176 12.3603 0.21967 12.2197C0.360322 12.079 0.551088 12 0.75 12C0.948912 12 1.13968 12.079 1.28033 12.2197C1.42098 12.3603 1.5 12.5511 1.5 12.75V14.25H3.375V12.75C3.375 12.5511 3.45402 12.3603 3.59467 12.2197C3.73532 12.079 3.92609 12 4.125 12C4.32391 12 4.51468 12.079 4.65533 12.2197C4.79598 12.3603 4.875 12.5511 4.875 12.75ZM10.125 12.75C10.125 12.9489 10.046 13.1397 9.90533 13.2803C9.76468 13.421 9.57391 13.5 9.375 13.5H8.625V17.25C8.625 17.4489 8.54598 17.6397 8.40533 17.7803C8.26468 17.921 8.07391 18 7.875 18C7.67609 18 7.48532 17.921 7.34467 17.7803C7.20402 17.6397 7.125 17.4489 7.125 17.25V13.5H6.375C6.17609 13.5 5.98532 13.421 5.84467 13.2803C5.70402 13.1397 5.625 12.9489 5.625 12.75C5.625 12.5511 5.70402 12.3603 5.84467 12.2197C5.98532 12.079 6.17609 12 6.375 12H9.375C9.57391 12 9.76468 12.079 9.90533 12.2197C10.046 12.3603 10.125 12.5511 10.125 12.75ZM16.875 12.75V17.25C16.875 17.4489 16.796 17.6397 16.6553 17.7803C16.5147 17.921 16.3239 18 16.125 18C15.9261 18 15.7353 17.921 15.5947 17.7803C15.454 17.6397 15.375 17.4489 15.375 17.25V15L14.475 16.2C14.4051 16.2931 14.3146 16.3687 14.2104 16.4208C14.1063 16.4729 13.9914 16.5 13.875 16.5C13.7586 16.5 13.6437 16.4729 13.5396 16.4208C13.4354 16.3687 13.3449 16.2931 13.275 16.2L12.375 15V17.25C12.375 17.4489 12.296 17.6397 12.1553 17.7803C12.0147 17.921 11.8239 18 11.625 18C11.4261 18 11.2353 17.921 11.0947 17.7803C10.954 17.6397 10.875 17.4489 10.875 17.25V12.75C10.875 12.5926 10.9245 12.4392 11.0166 12.3115C11.1086 12.1838 11.2385 12.0883 11.3878 12.0385C11.5372 11.9887 11.6984 11.9872 11.8486 12.0341C11.9989 12.081 12.1306 12.1741 12.225 12.3L13.875 14.5003L15.525 12.3C15.6194 12.1741 15.7511 12.081 15.9014 12.0341C16.0516 11.9872 16.2128 11.9887 16.3622 12.0385C16.5115 12.0883 16.6414 12.1838 16.7334 12.3115C16.8255 12.4392 16.875 12.5926 16.875 12.75ZM22.125 17.25C22.125 17.4489 22.046 17.6397 21.9053 17.7803C21.7647 17.921 21.5739 18 21.375 18H18.75C18.5511 18 18.3603 17.921 18.2197 17.7803C18.079 17.6397 18 17.4489 18 17.25V12.75C18 12.5511 18.079 12.3603 18.2197 12.2197C18.3603 12.079 18.5511 12 18.75 12C18.9489 12 19.1397 12.079 19.2803 12.2197C19.421 12.3603 19.5 12.5511 19.5 12.75V16.5H21.375C21.5739 16.5 21.7647 16.579 21.9053 16.7197C22.046 16.8603 22.125 17.0511 22.125 17.25Z" fill="#E4E4E4"/>
</svg>
