<svg width="17" height="20" viewBox="0 0 17 20" fill="none" xmlns="http://www.w3.org/2000/svg">
<path d="M16.2806 5.46938L11.0306 0.219375C10.9609 0.149749 10.8782 0.094539 10.7871 0.0568979C10.6961 0.0192569 10.5985 -7.72394e-05 10.5 2.31899e-07H1.5C1.10218 2.31899e-07 0.720644 0.158035 0.43934 0.43934C0.158035 0.720645 0 1.10218 0 1.5V8.25C0 8.44891 0.0790178 8.63968 0.21967 8.78033C0.360322 8.92098 0.551088 9 0.75 9C0.948912 9 1.13968 8.92098 1.28033 8.78033C1.42098 8.63968 1.5 8.44891 1.5 8.25V1.5H9.75V6C9.75 6.19891 9.82902 6.38968 9.96967 6.53033C10.1103 6.67098 10.3011 6.75 10.5 6.75H15V18H12C11.8011 18 11.6103 18.079 11.4697 18.2197C11.329 18.3603 11.25 18.5511 11.25 18.75C11.25 18.9489 11.329 19.1397 11.4697 19.2803C11.6103 19.421 11.8011 19.5 12 19.5H15C15.3978 19.5 15.7794 19.342 16.0607 19.0607C16.342 18.7794 16.5 18.3978 16.5 18V6C16.5001 5.90148 16.4807 5.80391 16.4431 5.71286C16.4055 5.62182 16.3503 5.53908 16.2806 5.46938ZM11.25 2.56031L13.9397 5.25H11.25V2.56031ZM2.25 11.25H0.75C0.551088 11.25 0.360322 11.329 0.21967 11.4697C0.0790178 11.6103 0 11.8011 0 12V17.25C0 17.4489 0.0790178 17.6397 0.21967 17.7803C0.360322 17.921 0.551088 18 0.75 18C0.948912 18 1.13968 17.921 1.28033 17.7803C1.42098 17.6397 1.5 17.4489 1.5 17.25V16.5H2.25C2.94619 16.5 3.61387 16.2234 4.10616 15.7312C4.59844 15.2389 4.875 14.5712 4.875 13.875C4.875 13.1788 4.59844 12.5111 4.10616 12.0188C3.61387 11.5266 2.94619 11.25 2.25 11.25ZM2.25 15H1.5V12.75H2.25C2.54837 12.75 2.83452 12.8685 3.0455 13.0795C3.25647 13.2905 3.375 13.5766 3.375 13.875C3.375 14.1734 3.25647 14.4595 3.0455 14.6705C2.83452 14.8815 2.54837 15 2.25 15ZM10.7606 12.3975L9 15.21V17.25C9 17.4489 8.92098 17.6397 8.78033 17.7803C8.63968 17.921 8.44891 18 8.25 18C8.05109 18 7.86032 17.921 7.71967 17.7803C7.57902 17.6397 7.5 17.4489 7.5 17.25V15.2147L5.73938 12.4022C5.68373 12.3187 5.6454 12.2249 5.62666 12.1264C5.60791 12.0278 5.60913 11.9265 5.63024 11.8284C5.65135 11.7303 5.69193 11.6375 5.74956 11.5554C5.8072 11.4732 5.88072 11.4035 5.96578 11.3503C6.05084 11.2971 6.14571 11.2615 6.24477 11.2457C6.34383 11.2298 6.44507 11.234 6.5425 11.2579C6.63992 11.2819 6.73155 11.3251 6.81196 11.3851C6.89237 11.4451 6.95992 11.5206 7.01062 11.6072L8.25 13.5853L9.48938 11.6025C9.54008 11.5159 9.60763 11.4404 9.68804 11.3804C9.76845 11.3204 9.86008 11.2772 9.9575 11.2532C10.0549 11.2293 10.1562 11.2251 10.2552 11.241C10.3543 11.2569 10.4492 11.2924 10.5342 11.3456C10.6193 11.3988 10.6928 11.4685 10.7504 11.5507C10.8081 11.6328 10.8486 11.7256 10.8698 11.8237C10.8909 11.9218 10.8921 12.0231 10.8733 12.1217C10.8546 12.2202 10.8163 12.314 10.7606 12.3975Z" fill="#E4E4E4"/>
</svg>
