<svg width="33" height="25" viewBox="0 0 33 25" fill="none" xmlns="http://www.w3.org/2000/svg">
<path d="M31.7308 0H1.26923C0.93261 0 0.609776 0.131696 0.371749 0.366117C0.133722 0.600537 0 0.918479 0 1.25V22.5C0 23.163 0.267444 23.7989 0.743498 24.2678C1.21955 24.7366 1.86522 25 2.53846 25H30.4615C31.1348 25 31.7804 24.7366 32.2565 24.2678C32.7326 23.7989 33 23.163 33 22.5V1.25C33 0.918479 32.8663 0.600537 32.6283 0.366117C32.3902 0.131696 32.0674 0 31.7308 0ZM28.4673 2.5L16.5 13.3047L4.53274 2.5H28.4673ZM30.4615 22.5H2.53846V4.09219L15.6417 15.9219C15.8758 16.1336 16.1821 16.251 16.5 16.251C16.8179 16.251 17.1242 16.1336 17.3583 15.9219L30.4615 4.09219V22.5Z" fill="#E4E4E4"/>
</svg>
