<svg width="20" height="20" viewBox="0 0 20 20" fill="none" xmlns="http://www.w3.org/2000/svg">
<path d="M1.23981 16.6393C1.43031 16.538 1.54523 16.5349 4.84978 16.5343C8.81345 16.5333 9.01444 16.5165 10.1585 16.0917C14.1022 14.6264 15.6141 9.76264 13.2053 6.28753C12.2854 4.95976 10.7992 3.95224 9.30569 3.64301C8.67858 3.51333 8.67438 3.5359 9.21438 4.09452C9.90709 4.81065 9.95432 5.23802 9.37287 5.53308C8.98768 5.72786 8.84599 5.63441 7.53456 4.31556C5.94395 2.71635 5.93817 2.88698 7.64161 1.19589C8.92155 -0.0751848 8.97036 -0.105636 9.39491 0.0875713C9.56808 0.166849 9.63788 0.239302 9.71502 0.420959C9.86458 0.772722 9.79269 0.922353 9.16978 1.5571C8.878 1.85426 8.65392 2.11205 8.67176 2.13042C8.6896 2.14827 9.02756 2.2286 9.42272 2.30893C13.6414 3.16681 16.3525 7.22732 15.5574 11.4968C14.999 14.4957 12.6097 16.9717 9.59013 17.6794C8.99712 17.818 8.99712 17.818 5.1531 17.8327C1.30908 17.8474 1.30908 17.8474 1.15794 17.703C0.80634 17.3665 0.846224 16.8478 1.23981 16.6393Z" fill="#E4E4E4"/>
<path d="M2.1991 15.4507C-0.72655 12.425 -0.733897 7.60323 2.18231 4.55969C3.06289 3.64143 4.61782 2.66647 5.06808 2.751C5.38767 2.81085 5.61228 3.07756 5.61228 3.3973C5.61228 3.76323 5.51415 3.86246 4.74377 4.27408C1.83701 5.82761 0.551292 9.4261 1.81182 12.4807C2.39222 13.8877 3.67426 15.2564 4.96942 15.8523C5.06336 15.8959 5.1405 15.9489 5.13998 15.9705C5.13998 15.992 5.09275 16.0098 5.03502 16.0098C4.97729 16.0098 4.41998 15.992 3.79706 15.971C2.66406 15.9316 2.66406 15.9316 2.1991 15.4507Z" fill="#E4E4E4"/>
<path d="M17.1318 18.4795C17.4346 18.1719 17.6822 17.9036 17.6822 17.8826C17.6822 17.8621 16.1767 17.8516 14.3368 17.8595C12.4969 17.8674 10.9803 17.8663 10.9666 17.8579C10.9283 17.8332 11.0868 17.744 11.1702 17.7435C11.3109 17.7419 12.4098 17.1276 12.8018 16.832C13.1948 16.5349 13.1948 16.5349 15.4126 16.5349C16.6322 16.5349 17.6298 16.5191 17.6298 16.5002C17.6298 16.4813 17.3941 16.2235 17.1066 15.9274C16.4086 15.2097 16.343 14.7761 16.8893 14.4831C17.3128 14.2563 17.3322 14.2689 18.7633 15.699C20.017 16.9517 20.0653 17.02 19.9671 17.4106C19.9236 17.586 17.8008 19.7501 17.5253 19.9002C17.4251 19.9554 17.2656 20 17.1711 20C17.0735 20 16.9234 19.9449 16.8216 19.8719C16.353 19.5354 16.4296 19.192 17.1318 18.4795Z" fill="#E4E4E4"/>
</svg>
