<svg width="36" height="27" viewBox="0 0 36 27" fill="none" xmlns="http://www.w3.org/2000/svg">
<path d="M23.8564 12.4783L16.1421 7.56921C15.9485 7.44586 15.7233 7.37504 15.4908 7.36428C15.2582 7.35353 15.027 7.40325 14.8217 7.50814C14.6165 7.61304 14.4449 7.76917 14.3253 7.95987C14.2058 8.15056 14.1427 8.36867 14.1429 8.59091V18.4091C14.1427 18.6313 14.2058 18.8494 14.3253 19.0401C14.4449 19.2308 14.6165 19.387 14.8217 19.4919C15.027 19.5968 15.2582 19.6465 15.4908 19.6357C15.7233 19.625 15.9485 19.5541 16.1421 19.4308L23.8564 14.5217C24.0328 14.4097 24.1774 14.2578 24.2774 14.0795C24.3775 13.9013 24.4298 13.7022 24.4298 13.5C24.4298 13.2978 24.3775 13.0987 24.2774 12.9205C24.1774 12.7422 24.0328 12.5903 23.8564 12.4783ZM16.7143 16.1156V10.892L20.8254 13.5L16.7143 16.1156ZM35.0887 4.52864C34.9373 3.96309 34.6472 3.44002 34.2423 3.00258C33.8374 2.56513 33.3293 2.22585 32.76 2.01273C27.2507 -0.0184034 18.4821 5.83558e-06 18 5.83558e-06C17.5179 5.83558e-06 8.74929 -0.0184034 3.24 2.01273C2.67069 2.22585 2.16263 2.56513 1.75772 3.00258C1.35282 3.44002 1.06268 3.96309 0.91125 4.52864C0.495 6.05966 0 8.85785 0 13.5C0 18.1422 0.495 20.9403 0.91125 22.4714C1.06246 23.0372 1.35249 23.5606 1.75741 23.9983C2.16232 24.436 2.67051 24.7755 3.24 24.9888C8.51786 26.9325 16.7786 27 17.8939 27H18.1061C19.2214 27 27.487 26.9325 32.76 24.9888C33.3295 24.7755 33.8377 24.436 34.2426 23.9983C34.6475 23.5606 34.9375 23.0372 35.0887 22.4714C35.505 20.9373 36 18.1422 36 13.5C36 8.85785 35.505 6.05966 35.0887 4.52864ZM32.5993 21.8639C32.5503 22.0521 32.4553 22.2265 32.322 22.3729C32.1888 22.5193 32.0211 22.6335 31.8327 22.7061C26.7461 24.5807 18.0948 24.547 18.0113 24.547H18C17.9132 24.547 9.26839 24.5777 4.17857 22.7061C3.99017 22.6335 3.82246 22.5193 3.68921 22.3729C3.55595 22.2265 3.46094 22.0521 3.41196 21.8639C3.02143 20.4632 2.57143 17.8829 2.57143 13.5C2.57143 9.11711 3.02143 6.53677 3.40071 5.14381C3.44878 4.95448 3.54338 4.77878 3.67669 4.63126C3.80999 4.48374 3.97817 4.36864 4.16732 4.29546C9.07232 2.48677 17.2913 2.45455 17.9646 2.45455H18.008C18.0948 2.45455 26.7477 2.42694 31.8295 4.29546C32.0179 4.36804 32.1856 4.48221 32.3188 4.62861C32.4521 4.775 32.5471 4.94946 32.5961 5.13768C32.9786 6.53677 33.4286 9.11711 33.4286 13.5C33.4286 17.8829 32.9786 20.4632 32.5993 21.8562V21.8639Z" fill="#E4E4E4"/>
</svg>
