<svg width="21" height="21" viewBox="0 0 21 21" fill="none" xmlns="http://www.w3.org/2000/svg">
<path d="M5.31839 3.03937C5.48448 2.18448 5.94251 1.41388 6.61409 0.859438C7.28568 0.304999 8.12908 0.00118985 8.99996 0C9.19887 0 9.38963 0.0790176 9.53029 0.21967C9.67094 0.360322 9.74996 0.551088 9.74996 0.75C9.74996 0.948912 9.67094 1.13968 9.53029 1.28033C9.38963 1.42098 9.19887 1.5 8.99996 1.5C8.52352 1.5 8.05938 1.65124 7.6744 1.93193C7.28942 2.21262 7.00348 2.60826 6.85777 3.06187C8.28493 3.26961 9.58974 3.98382 10.5338 5.07406C11.478 6.1643 11.9983 7.5578 12 9C12 13.3828 14.414 16.3125 19.1746 17.7188C19.5003 17.8137 19.7841 18.0162 19.9799 18.2932C20.1756 18.5702 20.2717 18.9053 20.2525 19.244C20.2332 19.5826 20.0997 19.9047 19.8739 20.1578C19.648 20.4108 19.343 20.5798 19.0087 20.6372C17.5996 20.8808 16.1721 21.0022 14.7421 21C10.919 21 6.66464 20.1422 3.72371 17.6756C1.25246 15.6037 -4.3869e-05 12.6844 -4.3869e-05 9C0.00152397 7.52722 0.544136 6.10634 1.52467 5.00741C2.5052 3.90848 3.85531 3.2081 5.31839 3.03937ZM5.99996 4.5C5.06356 4.50124 4.15081 4.79414 3.38855 5.338C2.62628 5.88185 2.05235 6.64965 1.74652 7.53469L2.99996 8.15625L5.66433 6.82781C5.76853 6.77567 5.88344 6.74853 5.99996 6.74853C6.11647 6.74853 6.23138 6.77567 6.33558 6.82781L8.99996 8.15625L10.2534 7.53C9.94666 6.64591 9.37236 5.87921 8.61019 5.33626C7.84801 4.79331 6.93575 4.50104 5.99996 4.5ZM4.68746 16.5281C6.37496 17.9409 8.77496 18.8962 11.6362 19.2909C14.0007 19.6036 16.3986 19.5593 18.75 19.1597C13.3846 17.5781 10.5346 14.0972 10.5 9.08906L9.33371 9.67219C9.22951 9.72433 9.1146 9.75147 8.99808 9.75147C8.88157 9.75147 8.76665 9.72433 8.66246 9.67219L5.99996 8.33719L3.33558 9.66937C3.23138 9.72152 3.11647 9.74866 2.99996 9.74866C2.88344 9.74866 2.76853 9.72152 2.66433 9.66937L1.50089 9.08813C1.52058 12.2663 2.59214 14.7694 4.68746 16.5272V16.5281Z" fill="#E4E4E4"/>
</svg>
