<svg width="34" height="34" viewBox="0 0 34 34" fill="none" xmlns="http://www.w3.org/2000/svg">
<path d="M32.7895 8.13483C33.1744 6.89319 33.2979 5.58528 33.1522 4.29355C33.0064 3.00182 32.5946 1.7543 31.9427 0.62965C31.8321 0.438177 31.6731 0.279184 31.4816 0.168659C31.2902 0.0581331 31.0729 -2.90469e-05 30.8519 2.06067e-05C29.3851 -0.0030495 27.938 0.336973 26.6261 0.992921C25.3142 1.64887 24.1739 2.60256 23.2963 3.7778H19.5185C18.6409 2.60256 17.5006 1.64887 16.1887 0.992921C14.8768 0.336973 13.4297 -0.0030495 11.963 2.06067e-05C11.7419 -2.90469e-05 11.5247 0.0581331 11.3332 0.168659C11.1417 0.279184 10.9827 0.438177 10.8721 0.62965C10.2202 1.7543 9.80841 3.00182 9.66266 4.29355C9.5169 5.58528 9.64037 6.89319 10.0253 8.13483C9.24726 9.49281 8.83049 11.0276 8.81481 12.5926V13.8519C8.81746 15.9825 9.59094 18.0403 10.9924 19.6452C12.3939 21.25 14.3287 22.2936 16.4396 22.5832C15.578 23.6858 15.1103 25.0451 15.1111 26.4445V27.7037H11.3333C10.3314 27.7037 9.37051 27.3057 8.66204 26.5972C7.95357 25.8888 7.55556 24.9279 7.55556 23.9259C7.55556 23.0991 7.3927 22.2803 7.07628 21.5164C6.75986 20.7525 6.29608 20.0584 5.71141 19.4738C5.12675 18.8891 4.43265 18.4253 3.66875 18.1089C2.90485 17.7925 2.0861 17.6296 1.25926 17.6296C0.925283 17.6296 0.604985 17.7623 0.368829 17.9985C0.132672 18.2346 0 18.5549 0 18.8889C0 19.2229 0.132672 19.5432 0.368829 19.7793C0.604985 20.0155 0.925283 20.1482 1.25926 20.1482C2.26119 20.1482 3.22208 20.5462 3.93055 21.2546C4.63902 21.9631 5.03704 22.924 5.03704 23.9259C5.03704 25.5958 5.70039 27.1973 6.88118 28.3781C8.06196 29.5589 9.66345 30.2222 11.3333 30.2222H15.1111V32.7407C15.1111 33.0747 15.2438 33.395 15.4799 33.6312C15.7161 33.8673 16.0364 34 16.3704 34C16.7043 34 17.0246 33.8673 17.2608 33.6312C17.497 33.395 17.6296 33.0747 17.6296 32.7407V26.4445C17.6296 25.4425 18.0276 24.4816 18.7361 23.7732C19.4446 23.0647 20.4055 22.6667 21.4074 22.6667C22.4093 22.6667 23.3702 23.0647 24.0787 23.7732C24.7872 24.4816 25.1852 25.4425 25.1852 26.4445V32.7407C25.1852 33.0747 25.3179 33.395 25.554 33.6312C25.7902 33.8673 26.1105 34 26.4444 34C26.7784 34 27.0987 33.8673 27.3349 33.6312C27.571 33.395 27.7037 33.0747 27.7037 32.7407V26.4445C27.7045 25.0451 27.2368 23.6858 26.3752 22.5832C28.4861 22.2936 30.4209 21.25 31.8224 19.6452C33.2239 18.0403 33.9973 15.9825 34 13.8519V12.5926C33.9843 11.0276 33.5676 9.49281 32.7895 8.13483ZM31.4815 13.8519C31.4815 15.5217 30.8181 17.1232 29.6373 18.304C28.4566 19.4848 26.8551 20.1482 25.1852 20.1482H17.6296C15.9597 20.1482 14.3583 19.4848 13.1775 18.304C11.9967 17.1232 11.3333 15.5217 11.3333 13.8519V12.5926C11.3488 11.3334 11.7258 10.1051 12.4194 9.05409C12.5488 8.88365 12.6325 8.68307 12.6628 8.47128C12.6931 8.2595 12.6689 8.04349 12.5926 7.84363C12.2646 6.99772 12.1067 6.09539 12.1281 5.18837C12.1494 4.28134 12.3495 3.38744 12.7169 2.55789C13.7475 2.66875 14.7399 3.01014 15.6206 3.55675C16.5013 4.10336 17.2476 4.84116 17.8044 5.71548C17.9178 5.89289 18.0739 6.03901 18.2584 6.14048C18.443 6.24195 18.65 6.29553 18.8606 6.29631H23.9527C24.1641 6.29632 24.372 6.24312 24.5574 6.14161C24.7429 6.0401 24.8997 5.89356 25.0136 5.71548C25.5702 4.84109 26.3166 4.10322 27.1973 3.5566C28.078 3.00999 29.0704 2.66864 30.101 2.55789C30.4679 3.38765 30.6675 4.28166 30.6883 5.18868C30.7091 6.09571 30.5507 6.99792 30.2222 7.84363C30.1461 8.04158 30.1206 8.2554 30.1481 8.46568C30.1756 8.67597 30.2552 8.87606 30.3796 9.04779C31.0802 10.0988 31.4627 11.3296 31.4815 12.5926V13.8519Z" fill="#E4E4E4"/>
</svg>
