<svg width="33" height="33" viewBox="0 0 33 33" fill="none" xmlns="http://www.w3.org/2000/svg">
<path d="M30.4615 0H2.53846C1.86522 0 1.21955 0.267444 0.743498 0.743498C0.267444 1.21955 0 1.86522 0 2.53846V30.4615C0 31.1348 0.267444 31.7804 0.743498 32.2565C1.21955 32.7326 1.86522 33 2.53846 33H30.4615C31.1348 33 31.7804 32.7326 32.2565 32.2565C32.7326 31.7804 33 31.1348 33 30.4615V2.53846C33 1.86522 32.7326 1.21955 32.2565 0.743498C31.7804 0.267444 31.1348 0 30.4615 0ZM30.4615 30.4615H2.53846V2.53846H30.4615V30.4615ZM11.4231 13.9615V24.1154C11.4231 24.452 11.2894 24.7748 11.0513 25.0129C10.8133 25.2509 10.4905 25.3846 10.1538 25.3846C9.81722 25.3846 9.49439 25.2509 9.25636 25.0129C9.01834 24.7748 8.88461 24.452 8.88461 24.1154V13.9615C8.88461 13.6249 9.01834 13.3021 9.25636 13.0641C9.49439 12.826 9.81722 12.6923 10.1538 12.6923C10.4905 12.6923 10.8133 12.826 11.0513 13.0641C11.2894 13.3021 11.4231 13.6249 11.4231 13.9615ZM25.3846 18.4038V24.1154C25.3846 24.452 25.2509 24.7748 25.0129 25.0129C24.7748 25.2509 24.452 25.3846 24.1154 25.3846C23.7788 25.3846 23.4559 25.2509 23.2179 25.0129C22.9799 24.7748 22.8462 24.452 22.8462 24.1154V18.4038C22.8462 17.5623 22.5118 16.7552 21.9168 16.1601C21.3217 15.5651 20.5146 15.2308 19.6731 15.2308C18.8315 15.2308 18.0244 15.5651 17.4294 16.1601C16.8343 16.7552 16.5 17.5623 16.5 18.4038V24.1154C16.5 24.452 16.3663 24.7748 16.1283 25.0129C15.8902 25.2509 15.5674 25.3846 15.2308 25.3846C14.8941 25.3846 14.5713 25.2509 14.3333 25.0129C14.0953 24.7748 13.9615 24.452 13.9615 24.1154V13.9615C13.9631 13.6506 14.0787 13.3511 14.2865 13.1199C14.4942 12.8886 14.7796 12.7416 15.0886 12.7067C15.3975 12.6719 15.7085 12.7517 15.9625 12.9309C16.2165 13.1102 16.3959 13.3764 16.4667 13.6791C17.3253 13.0967 18.3263 12.7591 19.3623 12.7027C20.3983 12.6462 21.4301 12.873 22.347 13.3587C23.2638 13.8445 24.031 14.5708 24.5661 15.4596C25.1013 16.3485 25.3843 17.3663 25.3846 18.4038ZM12.0577 9.51923C12.0577 9.89578 11.946 10.2639 11.7368 10.577C11.5276 10.89 11.2303 11.1341 10.8824 11.2782C10.5345 11.4223 10.1517 11.46 9.78242 11.3865C9.41311 11.313 9.07388 11.1317 8.80762 10.8655C8.54137 10.5992 8.36004 10.26 8.28658 9.89065C8.21312 9.52134 8.25082 9.13854 8.39492 8.79066C8.53902 8.44278 8.78304 8.14544 9.09613 7.93624C9.40921 7.72704 9.7773 7.61538 10.1538 7.61538C10.6588 7.61538 11.143 7.81597 11.5001 8.17301C11.8571 8.53005 12.0577 9.0143 12.0577 9.51923Z" fill="#E4E4E4"/>
</svg>
