<svg width="14" height="21" viewBox="0 0 14 21" fill="none" xmlns="http://www.w3.org/2000/svg">
<path d="M11.25 0H2.25C1.65326 0 1.08097 0.237053 0.65901 0.65901C0.237053 1.08097 0 1.65326 0 2.25V18.75C0 19.3467 0.237053 19.919 0.65901 20.341C1.08097 20.7629 1.65326 21 2.25 21H11.25C11.8467 21 12.419 20.7629 12.841 20.341C13.2629 19.919 13.5 19.3467 13.5 18.75V2.25C13.5 1.65326 13.2629 1.08097 12.841 0.65901C12.419 0.237053 11.8467 0 11.25 0ZM1.5 4.5H12V16.5H1.5V4.5ZM2.25 1.5H11.25C11.4489 1.5 11.6397 1.57902 11.7803 1.71967C11.921 1.86032 12 2.05109 12 2.25V3H1.5V2.25C1.5 2.05109 1.57902 1.86032 1.71967 1.71967C1.86032 1.57902 2.05109 1.5 2.25 1.5ZM11.25 19.5H2.25C2.05109 19.5 1.86032 19.421 1.71967 19.2803C1.57902 19.1397 1.5 18.9489 1.5 18.75V18H12V18.75C12 18.9489 11.921 19.1397 11.7803 19.2803C11.6397 19.421 11.4489 19.5 11.25 19.5Z" fill="#E4E4E4"/>
</svg>
