<svg width="19" height="21" viewBox="0 0 19 21" fill="none" xmlns="http://www.w3.org/2000/svg">
<path d="M5.98156 3.45848C5.71499 4.1268 5.85587 4.07549 4.6709 3.93345C0.0907808 3.385 -1.40717 6.18717 1.46551 9.93065C1.89227 10.4865 1.9851 10.6314 1.9547 10.6926C1.93416 10.7336 1.71072 11.0464 1.45771 11.3872C-1.24 15.0243 0.504393 17.7563 5.11285 17.1105C5.42747 17.0662 5.70595 17.0457 5.7384 17.0642C5.77044 17.0826 5.93473 17.4209 6.10395 17.8158C7.92927 22.0761 11.0895 22.0589 12.9053 17.7789C13.2483 16.9706 13.1941 17.0079 13.8697 17.1085C18.5139 17.799 20.237 14.9956 17.4551 11.2755C17.0842 10.7788 17.0049 10.6491 17.0357 10.5871C17.0562 10.5452 17.2969 10.2221 17.5696 9.86908C20.492 6.09029 18.7637 3.26883 13.9564 3.97163C13.1937 4.08329 13.2914 4.14897 12.9312 3.28278C12.2153 1.56232 11.2677 0.451878 10.236 0.124697C10.0556 0.0676346 9.76895 0.0130348 9.59891 0.00359344C9.38081 -0.00872231 9.19269 0.0101604 8.95898 0.0672226C7.78058 0.355404 6.75415 1.52455 5.98156 3.45848ZM11.7943 3.69863C12.106 4.44577 12.1245 4.37352 11.5791 4.54142C11.3256 4.61942 10.7523 4.82796 10.3058 5.00489L9.49376 5.32673C8.33302 4.85998 7.76086 4.65144 7.47335 4.56195C6.85807 4.37065 6.88312 4.44946 7.19651 3.69863C7.61546 2.69452 8.19214 1.8505 8.69652 1.50402C8.79017 1.43957 8.95282 1.34844 9.05797 1.30205C9.20214 1.23842 9.31919 1.22036 9.53483 1.22816C10.3263 1.25648 11.1519 2.1592 11.7943 3.69863ZM5.3786 5.259C5.38886 5.26926 5.33095 5.61574 5.24962 6.02912C5.12353 6.66953 5.06603 7.0316 4.95965 7.85345C4.94568 7.96224 4.86518 8.04393 4.4569 8.36577C4.18952 8.57678 3.72333 8.97046 3.42062 9.2414C2.79096 9.80381 2.86366 9.82679 2.15884 8.83869C0.951273 7.14572 0.892538 5.87272 1.99783 5.34972C2.13255 5.28609 2.40528 5.19865 2.60366 5.15514C2.86818 5.09767 3.12694 5.07673 3.57095 5.07673C4.10614 5.07673 5.31863 5.19865 5.3786 5.259ZM16.8311 8.83992C16.1271 9.82679 16.1998 9.80381 15.5702 9.2414C15.2675 8.97046 14.8017 8.57719 14.5355 8.36741C14.1757 8.08334 14.0464 7.9569 14.0328 7.87562C14.0225 7.81486 13.9856 7.54392 13.9507 7.27298C13.9157 7.00204 13.8213 6.4421 13.7412 6.0283C13.6607 5.6145 13.6011 5.27008 13.6089 5.26269C13.6167 5.25489 13.8591 5.21015 14.147 5.16294C14.5766 5.09233 14.8128 5.07878 15.4613 5.08823C17.9956 5.12517 18.4983 6.50286 16.8311 8.83992ZM7.97568 6.0673C6.76935 6.77257 6.31056 7.03653 6.30275 7.02955C6.29741 7.02503 6.32165 6.85631 6.35697 6.65434C6.39188 6.45278 6.45637 6.12601 6.4999 5.92855C6.55371 5.6847 6.59766 5.56935 6.63709 5.56935C6.78742 5.56935 8.034 6.03323 7.97568 6.0673ZM12.6552 6.77051L12.7016 7.04761C11.3659 6.26969 10.9831 6.03939 10.9888 6.03364C10.9946 6.02789 11.28 5.92116 11.6234 5.79636C11.9664 5.67157 12.2831 5.56935 12.3266 5.56935C12.4079 5.56935 12.5279 6.00819 12.6552 6.77051ZM12.7558 8.57965C12.9 8.71553 12.9 8.71553 12.9292 9.29641C12.9756 10.2336 12.9246 12.2915 12.8503 12.4738C12.7476 12.7258 10.1965 14.2456 9.61452 14.4016C9.37506 14.4656 8.53387 14.0559 7.09794 13.1762C5.94788 12.4717 6.06617 12.7743 6.06576 10.5362C6.06576 8.42365 5.94788 8.71799 7.07576 8.01027C7.5325 7.72373 8.25416 7.30665 8.68009 7.08374C9.24116 6.7894 9.47979 6.68431 9.54674 6.70196C9.88601 6.79022 12.4478 8.28901 12.7558 8.57965ZM4.80603 11.5629C4.76044 11.5629 3.7451 10.6651 3.7451 10.6248C3.7451 10.6051 3.97634 10.3736 4.25852 10.1113C4.71772 9.68394 4.77399 9.64329 4.79248 9.72581C4.82575 9.87318 4.83807 11.5629 4.80603 11.5629ZM15.2457 10.6125C15.2457 10.6716 14.2427 11.5629 14.1761 11.5629C14.1659 11.5629 14.1618 11.1289 14.1675 10.5981L14.1778 9.63344C15.0054 10.3596 15.2457 10.5895 15.2457 10.6125ZM4.42692 12.8153C4.96457 13.2324 4.96457 13.2324 5.05658 13.8654C5.1071 14.2131 5.21143 14.7932 5.28782 15.1536C5.4513 15.9238 5.50469 15.8433 4.77194 15.9307C1.64542 16.3031 0.593933 15.0719 2.02124 12.7098C2.1576 12.4845 2.40733 12.1249 2.57573 11.911L2.88255 11.5218C3.66254 12.2008 4.13078 12.5859 4.42692 12.8153ZM17.1909 13.1089C18.1373 14.9595 17.4144 16.0013 15.189 15.9952C14.7417 15.9935 13.6344 15.8774 13.5835 15.8265C13.5724 15.8154 13.6254 15.512 13.7017 15.152C13.7781 14.7924 13.8821 14.214 13.933 13.8667C14.0258 13.2349 14.0258 13.2349 14.6686 12.7332C15.0223 12.457 15.4815 12.0715 15.6893 11.8765C16.0565 11.5317 16.0696 11.5239 16.1543 11.5908C16.3194 11.7213 16.9638 12.6655 17.1909 13.1089ZM7.93461 15.0658C7.98513 15.0875 7.98143 15.0994 7.91407 15.1319C7.8044 15.184 6.70527 15.5448 6.65516 15.5448C6.63339 15.5448 6.56357 15.3187 6.49949 15.042C6.43542 14.7653 6.37175 14.4512 6.35779 14.3441C6.33273 14.1491 6.33274 14.1491 7.10286 14.5941C7.52633 14.8388 7.90093 15.051 7.93461 15.0658ZM12.3747 15.4948C12.3443 15.549 12.2584 15.5313 11.7491 15.3646C10.9437 15.1007 10.9609 15.1105 11.1383 15.0235C11.2172 14.9845 11.5824 14.7723 11.9495 14.551C12.3167 14.3301 12.6281 14.1643 12.6416 14.1832C12.6687 14.2209 12.4301 15.3962 12.3747 15.4948ZM10.3033 16.1319C10.7288 16.2969 11.2858 16.4944 11.5413 16.5715C12.0917 16.737 12.0756 16.6491 11.7064 17.4915C10.5399 20.1541 9.01731 20.4854 7.72883 18.3565C7.48526 17.9537 6.98868 16.8782 6.9895 16.7555C6.98991 16.7329 7.28112 16.6229 7.63682 16.5108C7.99252 16.3991 8.52853 16.2008 8.82796 16.0699C9.12738 15.9394 9.40792 15.8322 9.45104 15.8322C9.49458 15.8322 9.87821 15.9673 10.3033 16.1319Z" fill="#E4E4E4"/>
<path d="M7.55755 10.477C7.55755 10.9857 7.75972 11.4735 8.11957 11.8332C8.47943 12.1928 8.96749 12.3949 9.47641 12.3949C9.98532 12.3949 10.4734 12.1928 10.8332 11.8332C11.1931 11.4735 11.3953 10.9857 11.3953 10.477C11.3953 9.96841 11.1931 9.48061 10.8332 9.12095C10.4734 8.76129 9.98532 8.55923 9.47641 8.55923C8.96749 8.55923 8.47943 8.76129 8.11957 9.12095C7.75972 9.48061 7.55755 9.96841 7.55755 10.477Z" fill="#E4E4E4"/>
</svg>
