<svg width="18" height="21" viewBox="0 0 18 21" fill="none" xmlns="http://www.w3.org/2000/svg">
<path d="M16.7598 2.17896L4.54889 0.0227058C4.15717 -0.0462279 3.7541 0.0432414 3.42833 0.271439C3.10256 0.499636 2.88076 0.847877 2.81171 1.23958L0.0226433 17.0833C-0.0114696 17.2774 -0.00700065 17.4763 0.0357947 17.6687C0.0785901 17.8611 0.158873 18.0431 0.272055 18.2045C0.385238 18.3658 0.529102 18.5032 0.695426 18.6089C0.861749 18.7146 1.04727 18.7865 1.24139 18.8205L13.4523 20.9768C13.6465 21.011 13.8455 21.0067 14.038 20.9639C14.2305 20.9212 14.4126 20.8409 14.5741 20.7277C14.7355 20.6145 14.873 20.4706 14.9788 20.3042C15.0846 20.1378 15.1565 19.9522 15.1905 19.758L17.9795 3.91427C18.0478 3.52242 17.9577 3.11947 17.729 2.79405C17.5003 2.46863 17.1517 2.24738 16.7598 2.17896ZM13.7111 19.4993L1.49921 17.343L4.28827 1.49927L16.4992 3.65552L13.7111 19.4993ZM5.37483 3.97614C5.40957 3.78037 5.52063 3.6064 5.6836 3.49248C5.84656 3.37856 6.0481 3.33402 6.24389 3.36864L14.0251 4.74208C14.2101 4.77448 14.3761 4.87505 14.4905 5.02394C14.6049 5.17283 14.6592 5.3592 14.6429 5.54623C14.6265 5.73326 14.5406 5.90735 14.4021 6.0341C14.2636 6.16086 14.0826 6.23106 13.8948 6.23083C13.8508 6.23077 13.8069 6.22701 13.7636 6.21958L5.98233 4.84521C5.78655 4.81047 5.61259 4.6994 5.49867 4.53644C5.38475 4.37347 5.34021 4.17194 5.37483 3.97614ZM4.85546 6.93114C4.87255 6.83412 4.90859 6.74142 4.96152 6.65832C5.01445 6.57523 5.08323 6.50339 5.16394 6.44688C5.24464 6.39038 5.33569 6.35033 5.43187 6.32903C5.52806 6.30772 5.6275 6.30557 5.72452 6.32271L13.5058 7.69708C13.692 7.72823 13.8596 7.82847 13.9752 7.9778C14.0907 8.12712 14.1457 8.31454 14.1292 8.50263C14.1126 8.69072 14.0257 8.86564 13.8858 8.99246C13.7459 9.11928 13.5633 9.18866 13.3745 9.18677C13.3302 9.18686 13.2859 9.18278 13.2423 9.17458L5.46108 7.80114C5.26546 7.76598 5.09179 7.6546 4.97823 7.49147C4.86468 7.32834 4.82052 7.12681 4.85546 6.93114ZM4.33514 9.88521C4.37054 9.68995 4.48187 9.51667 4.64476 9.40333C4.80765 9.29 5.00882 9.24583 5.20421 9.28052L9.09296 9.96396C9.27781 9.99634 9.4438 10.0968 9.55817 10.2456C9.67254 10.3944 9.72697 10.5807 9.71072 10.7676C9.69448 10.9546 9.60873 11.1287 9.47041 11.2555C9.33209 11.3823 9.15125 11.4527 8.96358 11.4527C8.91959 11.4527 8.87568 11.4489 8.83233 11.4415L4.94171 10.7543C4.7461 10.7193 4.57237 10.6082 4.45864 10.4452C4.34492 10.2823 4.3005 10.0809 4.33514 9.88521Z" fill="#00F5FF"/>
</svg>
